<svg width="720" height="300" viewBox="0 0 720 300" xmlns="http://www.w3.org/2000/svg">
  <rect width="720" height="300" rx="28" fill="#111315"/>

  <text x="42" y="82" font-family="Segoe UI, Inter, Arial, sans-serif" font-size="56" font-weight="800" fill="#FFFFFF">Cognition</text>
  <text x="42" y="128" font-family="Segoe UI, Inter, Arial, sans-serif" font-size="24" font-weight="650" fill="#A8B8FF">Behaviour is data, not code.</text>
  <text x="42" y="182" font-family="Segoe UI, Inter, Arial, sans-serif" font-size="20" fill="#E7E9EC">An AI-operated Discord system where new</text>
  <text x="42" y="212" font-family="Segoe UI, Inter, Arial, sans-serif" font-size="20" fill="#E7E9EC">behaviour appears without redeploying the bot.</text>

  <g transform="translate(505 61)">
    <circle cx="82" cy="82" r="68" fill="#1B1F24" stroke="#3E4754" stroke-width="2"/>
    <circle cx="82" cy="82" r="11" fill="#A8B8FF"/>
    <circle cx="82" cy="29" r="7" fill="#6F7B88"/>
    <circle cx="128" cy="56" r="7" fill="#6F7B88"/>
    <circle cx="128" cy="108" r="7" fill="#6F7B88"/>
    <circle cx="82" cy="135" r="7" fill="#6F7B88"/>
    <circle cx="36" cy="108" r="7" fill="#6F7B88"/>
    <circle cx="36" cy="56" r="7" fill="#6F7B88"/>
    <g stroke="#687586" stroke-width="3" stroke-linecap="round">
      <line x1="82" y1="71" x2="82" y2="36"/>
      <line x1="91" y1="76" x2="121" y2="59"/>
      <line x1="91" y1="88" x2="121" y2="105"/>
      <line x1="82" y1="93" x2="82" y2="128"/>
      <line x1="73" y1="88" x2="43" y2="105"/>
      <line x1="73" y1="76" x2="43" y2="59"/>
    </g>
  </g>

  <text x="674" y="268" font-family="Segoe UI Symbol, Arial" font-size="30" fill="#A8B8FF">↗</text>
</svg>