<svg width="720" height="300" viewBox="0 0 720 300" xmlns="http://www.w3.org/2000/svg">
  <rect width="720" height="300" rx="28" fill="#F2EBDD"/>
  <rect x="20" y="20" width="680" height="260" rx="20" fill="#FFFDF8" stroke="#D8CFBF" stroke-width="2"/>

  <text x="42" y="82" font-family="Georgia, Segoe UI, serif" font-size="57" font-weight="700" fill="#262521">Schdule</text>
  <text x="42" y="130" font-family="Segoe UI, Inter, Arial, sans-serif" font-size="25" font-weight="650" fill="#59694F">A month you can read at a glance.</text>
  <text x="42" y="184" font-family="Segoe UI, Inter, Arial, sans-serif" font-size="20" fill="#383732">One habit. One board. One cell per day.</text>

  <g transform="translate(507 62)">
    <rect x="0" y="0" width="146" height="146" rx="16" fill="#EEE6D8"/>
    <g fill="#D7CDBD">
      <rect x="20" y="24" width="28" height="28" rx="5"/>
      <rect x="59" y="24" width="28" height="28" rx="5"/>
      <rect x="98" y="24" width="28" height="28" rx="5"/>
      <rect x="20" y="63" width="28" height="28" rx="5"/>
      <rect x="59" y="63" width="28" height="28" rx="5"/>
      <rect x="98" y="63" width="28" height="28" rx="5"/>
      <rect x="20" y="102" width="28" height="28" rx="5"/>
      <rect x="59" y="102" width="28" height="28" rx="5"/>
      <rect x="98" y="102" width="28" height="28" rx="5"/>
    </g>
    <path d="M66 75L72 81L82 69" fill="none" stroke="#5D8B60" stroke-width="4" stroke-linecap="round" stroke-linejoin="round"/>
  </g>

  <text x="674" y="268" font-family="Segoe UI Symbol, Arial" font-size="30" fill="#59694F">↗</text>
</svg>