<svg width="720" height="270" viewBox="0 0 720 270" xmlns="http://www.w3.org/2000/svg">
  <rect width="720" height="270" rx="26" fill="#222034"/>
  <rect x="0" y="0" width="12" height="270" rx="6" fill="#25AF7C"/>

  <!-- stepped pixel field -->
  <path d="M430 270V224H466V201H502V178H538V154H574V130H610V106H646V82H682V58H720V270Z" fill="#312E4E"/>
  <path d="M502 270V235H538V212H574V189H610V166H646V143H682V120H720V270Z" fill="#1A412D"/>

  <!-- month grid -->
  <rect x="535" y="54" width="132" height="132" rx="10" fill="#CBDBFC"/>
  <rect x="548" y="67" width="106" height="106" rx="5" fill="#FFFFFF"/>
  <g fill="#3F3F74">
    <rect x="559" y="79" width="18" height="18"/><rect x="588" y="79" width="18" height="18"/><rect x="617" y="79" width="18" height="18"/>
    <rect x="559" y="108" width="18" height="18"/><rect x="588" y="108" width="18" height="18"/><rect x="617" y="108" width="18" height="18"/>
    <rect x="559" y="137" width="18" height="18"/><rect x="588" y="137" width="18" height="18"/><rect x="617" y="137" width="18" height="18"/>
  </g>
  <rect x="588" y="108" width="18" height="18" fill="#25AF7C"/>
  <rect x="617" y="137" width="18" height="18" fill="#DF7126"/>

  <text x="46" y="72" font-family="Segoe UI, Inter, Arial, sans-serif" font-size="42" font-weight="700" fill="#FFFFFF">Schdule</text>
  <text x="46" y="110" font-family="Segoe UI, Inter, Arial, sans-serif" font-size="19" fill="#CBDBFC">The paper grid, rebuilt properly.</text>
  <text x="46" y="155" font-family="Segoe UI, Inter, Arial, sans-serif" font-size="17" fill="#FFFFFF">A fully local monthly habit tracker with one board</text>
  <text x="46" y="181" font-family="Segoe UI, Inter, Arial, sans-serif" font-size="17" fill="#FFFFFF">per habit and one meaningful cell per day.</text>

  <rect x="46" y="213" width="84" height="30" rx="7" fill="#312E4E"/>
  <text x="61" y="234" font-family="Segoe UI, Inter, Arial, sans-serif" font-size="14" fill="#CBDBFC">SwiftUI</text>
  <rect x="141" y="213" width="91" height="30" rx="7" fill="#312E4E"/>
  <text x="155" y="234" font-family="Segoe UI, Inter, Arial, sans-serif" font-size="14" fill="#CBDBFC">Local-first</text>
  <rect x="243" y="213" width="100" height="30" rx="7" fill="#312E4E"/>
  <text x="257" y="234" font-family="Segoe UI, Inter, Arial, sans-serif" font-size="14" fill="#CBDBFC">In progress</text>

  <text x="663" y="239" font-family="Segoe UI Symbol, Segoe UI, Arial, sans-serif" font-size="25" fill="#FFFFFF">↗</text>
</svg>