<svg xmlns="http://www.w3.org/2000/svg" width="1200" height="460" viewBox="0 0 1200 460" role="img" aria-label="justpainful — My Profile">
  <defs>
    <linearGradient id="titlebar" x1="0" y1="0" x2="0" y2="1">
      <stop offset="0%" stop-color="#2D8DED"/>
      <stop offset="100%" stop-color="#1253B3"/>
    </linearGradient>
    <linearGradient id="taskbar" x1="0" y1="0" x2="0" y2="1">
      <stop offset="0%" stop-color="#3165C9"/>
      <stop offset="100%" stop-color="#2557B8"/>
    </linearGradient>
    <style>
      .ui { font-family: Tahoma, Verdana, Arial, sans-serif; fill: #284B73; }
      .title { font-size: 18px; font-weight: 700; fill: #fff; }
      .menu { font-size: 12px; fill: #284B73; }
      .h { font-size: 12px; font-weight: 700; fill: #1F4F90; }
      .t { font-size: 11px; fill: #284B73; }
      .s { font-size: 10px; fill: #526B85; }
      .mono { font-size: 10px; fill: #526B85; }
    </style>
  </defs>
  <rect width="1200" height="460" fill="#ECE9D8" stroke="#245BC2" stroke-width="2"/>
  <rect x="2" y="2" width="1196" height="46" fill="url(#titlebar)"/>
  <text x="22" y="30" class="ui title">justpainful — My Profile</text>
  <g transform="translate(1084,12)">
    <rect x="0" y="0" width="24" height="22" fill="#6CB2F6" stroke="#DCEEFF"/>
    <rect x="31" y="0" width="24" height="22" fill="#6CB2F6" stroke="#DCEEFF"/>
    <rect x="62" y="0" width="24" height="22" fill="#E57C6B" stroke="#FFE2DE"/>
    <rect x="8" y="10" width="8" height="2" fill="#fff"/>
    <rect x="38" y="6" width="10" height="10" fill="none" stroke="#fff" stroke-width="2"/>
    <path d="M69 6 L79 16 M79 6 L69 16" stroke="#fff" stroke-width="2"/>
  </g>
  <rect x="14" y="62" width="1172" height="384" fill="#F1F6FB" stroke="#9DB7D5"/>
  
  
<text x="34" y="85" class="ui mono">C:\Documents and Settings\justpainful\profile</text>
<g transform="translate(36,106)">
  <rect width="1130" height="310" fill="#EAF2FB" stroke="#9DB7D5"/>
  <g>
      <rect x="22" y="22" width="370" height="236" fill="#F9FBFE" stroke="#9DB7D5"/>
      <rect x="22" y="22" width="370" height="28" fill="#DDEAF7"/>
      <text x="38" y="40" class="ui h">user.profile</text>
      
    <g transform="translate(24,58)">
      <rect width="94" height="72" fill="#2E63B8"/>
      <rect x="12" y="10" width="26" height="22" fill="#315EAA"/>
      <rect x="44" y="10" width="28" height="22" fill="#BDDDF9"/>
      <rect x="12" y="38" width="60" height="15" fill="#54A93E"/>
      <rect x="12" y="58" width="50" height="8" fill="#8CB5E7"/>
      <rect x="32" y="58" width="36" height="12" fill="#4C79C9"/>
    </g>
    <text x="136" y="82" style="font-family:Tahoma,Arial,sans-serif;font-size:24px;font-weight:700;fill:#1B3E6D;">justpainful</text>
    <text x="136" y="112" class="ui t">Software Engineer</text>
    <text x="136" y="136" class="ui t">Concept Engineer</text>
    <text x="136" y="160" class="ui t">Community Organizer</text>
    <line x1="24" y1="188" x2="344" y2="188" stroke="#B8CBE1"/>
    <text x="24" y="214" class="ui t">company: Flowline Inc.</text>
    <text x="24" y="238" class="ui t">project groups: Max · Rootline</text>
  
    </g>
  <g>
      <rect x="420" y="22" width="676" height="236" fill="#F9FBFE" stroke="#9DB7D5"/>
      <rect x="420" y="22" width="676" height="28" fill="#DDEAF7"/>
      <text x="436" y="40" class="ui h">system.status</text>
      
    <rect x="28" y="56" width="14" height="14" fill="#36B24A"/>
    <text x="60" y="68" class="ui t">online</text>
    <text x="206" y="68" class="ui s">building product systems and developer tools</text>
    <rect x="28" y="96" width="14" height="14" fill="#4285F4"/>
    <text x="60" y="108" class="ui t">working</text>
    <text x="206" y="108" class="ui s">full-stack engineering · AI-enabled workflows</text>
    <rect x="28" y="136" width="14" height="14" fill="#F4B400"/>
    <text x="60" y="148" class="ui t">organizing</text>
    <text x="206" y="148" class="ui s">community systems · team operations</text>
    <rect x="28" y="176" width="14" height="14" fill="#8E63CE"/>
    <text x="60" y="188" class="ui t">focus</text>
    <text x="206" y="188" class="ui s">Max · Rootline · Flowline Inc.</text>
    <line x1="28" y1="212" x2="648" y2="212" stroke="#B8CBE1"/>
    <text x="28" y="238" class="ui t">interface: Windows XP shell · pixel icons · image-first workspace</text>
  
    </g>
</g>
<rect x="2" y="424" width="1196" height="34" fill="url(#taskbar)"/>
<rect x="14" y="430" width="130" height="22" rx="2" fill="#3FAE2A" stroke="#2A8E19"/>
<circle cx="28" cy="441" r="8" fill="#F0EFE9"/>
<path d="M25 441 h6 M28 438 v6" stroke="#4EA33D" stroke-width="2"/>
<text x="46" y="446" style="font-family:Tahoma,Arial,sans-serif;font-size:14px;font-weight:700;fill:#fff;">start</text>
<rect x="882" y="432" width="280" height="20" fill="#D6E6F8" stroke="#7DA3CD"/>
<text x="902" y="446" class="ui t">Flowline Inc. · Max · Rootline</text>
<g transform="translate(1098,434)">
  <rect width="52" height="16" fill="#fff" stroke="#4E79C8"/>
  <rect y="5" width="52" height="5" fill="#2D61BA"/>
  <rect y="10" width="52" height="6" fill="#CC3541"/>
</g>

  
</svg>