<svg xmlns="http://www.w3.org/2000/svg" width="1200" height="520" viewBox="0 0 1200 520" role="img" aria-label="Control Panel — Stack &amp; Interests">
  <defs>
    <linearGradient id="titlebar" x1="0" y1="0" x2="0" y2="1">
      <stop offset="0%" stop-color="#2D8DED"/>
      <stop offset="100%" stop-color="#1253B3"/>
    </linearGradient>
    <linearGradient id="taskbar" x1="0" y1="0" x2="0" y2="1">
      <stop offset="0%" stop-color="#3165C9"/>
      <stop offset="100%" stop-color="#2557B8"/>
    </linearGradient>
    <style>
      .ui { font-family: Tahoma, Verdana, Arial, sans-serif; fill: #284B73; }
      .title { font-size: 18px; font-weight: 700; fill: #fff; }
      .menu { font-size: 12px; fill: #284B73; }
      .h { font-size: 12px; font-weight: 700; fill: #1F4F90; }
      .t { font-size: 11px; fill: #284B73; }
      .s { font-size: 10px; fill: #526B85; }
      .mono { font-size: 10px; fill: #526B85; }
    </style>
  </defs>
  <rect width="1200" height="520" fill="#ECE9D8" stroke="#245BC2" stroke-width="2"/>
  <rect x="2" y="2" width="1196" height="46" fill="url(#titlebar)"/>
  <text x="22" y="30" class="ui title">Control Panel — Stack &amp; Interests</text>
  <g transform="translate(1084,12)">
    <rect x="0" y="0" width="24" height="22" fill="#6CB2F6" stroke="#DCEEFF"/>
    <rect x="31" y="0" width="24" height="22" fill="#6CB2F6" stroke="#DCEEFF"/>
    <rect x="62" y="0" width="24" height="22" fill="#E57C6B" stroke="#FFE2DE"/>
    <rect x="8" y="10" width="8" height="2" fill="#fff"/>
    <rect x="38" y="6" width="10" height="10" fill="none" stroke="#fff" stroke-width="2"/>
    <path d="M69 6 L79 16 M79 6 L69 16" stroke="#fff" stroke-width="2"/>
  </g>
  <rect x="14" y="62" width="1172" height="444" fill="#F1F6FB" stroke="#9DB7D5"/>
  
  <g transform="translate(24,98)"><g>
      <rect x="0" y="0" width="1152" height="74" fill="#FFFFFF" stroke="#9DB7D5"/>
      <rect x="0" y="0" width="1152" height="28" fill="#DDEAF7"/>
      <text x="16" y="18" class="ui h">Languages</text>
      <text x="24" y="48" class="ui t">JavaScript · TypeScript · Python · PHP · HTML · CSS · Lua · Bash · SQL · JSON · YAML</text>
    </g><g>
      <rect x="0" y="88" width="1152" height="74" fill="#FFFFFF" stroke="#9DB7D5"/>
      <rect x="0" y="88" width="1152" height="28" fill="#DDEAF7"/>
      <text x="16" y="106" class="ui h">Frontend &amp; backend</text>
      <text x="24" y="48" class="ui t">Node.js · React · Next.js · Express · REST APIs · WebSockets</text>
    </g><g>
      <rect x="0" y="176" width="1152" height="74" fill="#FFFFFF" stroke="#9DB7D5"/>
      <rect x="0" y="176" width="1152" height="28" fill="#DDEAF7"/>
      <text x="16" y="194" class="ui h">Data &amp; cloud</text>
      <text x="24" y="48" class="ui t">PostgreSQL · MySQL · MongoDB · Redis · Firebase · Docker</text>
    </g><g>
      <rect x="0" y="264" width="1152" height="74" fill="#FFFFFF" stroke="#9DB7D5"/>
      <rect x="0" y="264" width="1152" height="28" fill="#DDEAF7"/>
      <text x="16" y="282" class="ui h">Interests</text>
      <text x="24" y="48" class="ui t">full-stack engineering · AI workflows · developer tools · product systems · community organization</text>
    </g><g transform="translate(0,352)"><g>
      <rect x="0" y="0" width="1152" height="60" fill="#FFFFFF" stroke="#9DB7D5"/>
      <rect x="0" y="0" width="1152" height="28" fill="#DDEAF7"/>
      <text x="16" y="18" class="ui h">Region</text>
      
  <rect x="24" y="24" width="54" height="9" fill="#fff" stroke="#86A4C3"/>
  <rect x="24" y="33" width="54" height="9" fill="#2D61BA"/>
  <rect x="24" y="42" width="54" height="10" fill="#C9343E"/>
  <text x="96" y="42" class="ui t">pixel Russian flag</text>

    </g></g></g>
  <rect x="14" y="490" width="1172" height="16" fill="#E3EEF8" stroke="#9DB7D5"/><text x="22" y="502" class="ui mono">Languages, stack, and focus areas</text></rect>
</svg>