<svg xmlns="http://www.w3.org/2000/svg" width="1200" height="460" viewBox="0 0 1200 460" role="img" aria-label="My Computer — C:\Workspace\justpainful">
  <defs>
    <linearGradient id="titlebar" x1="0" y1="0" x2="0" y2="1">
      <stop offset="0%" stop-color="#2D8DED"/>
      <stop offset="100%" stop-color="#1253B3"/>
    </linearGradient>
    <linearGradient id="taskbar" x1="0" y1="0" x2="0" y2="1">
      <stop offset="0%" stop-color="#3165C9"/>
      <stop offset="100%" stop-color="#2557B8"/>
    </linearGradient>
    <style>
      .ui { font-family: Tahoma, Verdana, Arial, sans-serif; fill: #284B73; }
      .title { font-size: 18px; font-weight: 700; fill: #fff; }
      .menu { font-size: 12px; fill: #284B73; }
      .h { font-size: 12px; font-weight: 700; fill: #1F4F90; }
      .t { font-size: 11px; fill: #284B73; }
      .s { font-size: 10px; fill: #526B85; }
      .mono { font-size: 10px; fill: #526B85; }
    </style>
  </defs>
  <rect width="1200" height="460" fill="#ECE9D8" stroke="#245BC2" stroke-width="2"/>
  <rect x="2" y="2" width="1196" height="46" fill="url(#titlebar)"/>
  <text x="22" y="30" class="ui title">My Computer — C:\Workspace\justpainful</text>
  <g transform="translate(1084,12)">
    <rect x="0" y="0" width="24" height="22" fill="#6CB2F6" stroke="#DCEEFF"/>
    <rect x="31" y="0" width="24" height="22" fill="#6CB2F6" stroke="#DCEEFF"/>
    <rect x="62" y="0" width="24" height="22" fill="#E57C6B" stroke="#FFE2DE"/>
    <rect x="8" y="10" width="8" height="2" fill="#fff"/>
    <rect x="38" y="6" width="10" height="10" fill="none" stroke="#fff" stroke-width="2"/>
    <path d="M69 6 L79 16 M79 6 L69 16" stroke="#fff" stroke-width="2"/>
  </g>
  <rect x="14" y="62" width="1172" height="384" fill="#F1F6FB" stroke="#9DB7D5"/>
  <rect x="14" y="62" width="1172" height="30" fill="#F6F7F9" stroke="#9DB7D5"/><text x="34" y="81" class="ui menu">File    Edit    View    Favorites    Tools    Help</text>
  
<g transform="translate(14,92)">
  <rect width="268" height="332" fill="#D8E7F7" stroke="#9DB7D5"/>
  <rect x="18" y="18" width="236" height="30" fill="#4F8CCD"/>
  <text x="34" y="38" style="font-family:Tahoma,Arial,sans-serif;font-size:13px;font-weight:700;fill:#fff;">System Tasks</text>
  <g transform="translate(30,74)">
    <rect x="0" y="0" width="34" height="26" fill="#E3B022"/><rect x="4" y="-3" width="16" height="6" fill="#F1D36C"/><text x="48" y="14" class="ui t">Projects</text><text x="48" y="34" class="ui s">Max and Rootline</text>
    <rect x="0" y="58" width="34" height="26" fill="#315B8A"/><text x="9" y="75" style="font-family:Consolas,monospace;font-size:14px;fill:#fff;">&gt;_</text><text x="48" y="72" class="ui t">Engineering</text><text x="48" y="92" class="ui s">Build, ship, automate</text>
    <rect x="0" y="116" width="34" height="26" fill="#3A89D0"/><text x="8" y="133" style="font-family:Consolas,monospace;font-size:14px;fill:#fff;">&lt;/&gt;</text><text x="48" y="130" class="ui t">Languages</text><text x="48" y="150" class="ui s">Web, backend, scripting</text>
    <rect x="0" y="174" width="34" height="26" fill="#E5B532"/><path d="M8 180 h18 l-4 4 l6 6 l-4 4 l-6-6 l-4 4z" fill="#5B3A00"/><text x="48" y="188" class="ui t">Toolbox</text><text x="48" y="208" class="ui s">AI, design, infra</text>
  </g>
  <line x1="16" y1="240" x2="252" y2="240" stroke="#9DB7D5"/>
  <text x="30" y="268" class="ui t">Pinned repositories are the</text>
  <text x="30" y="292" class="ui t">active project map.</text>
</g>
<g transform="translate(300,108)">
  <rect width="860" height="314" fill="#FDFEFE" stroke="#9DB7D5"/>
  <text x="18" y="22" class="ui h">Workspace</text>
  <g>
      <rect x="22" y="38" width="806" height="100" fill="#FFFFFF" stroke="#9DB7D5"/>
      <rect x="22" y="38" width="806" height="28" fill="#DDEAF7"/>
      <text x="38" y="56" class="ui h">Projects</text>
      
     <text x="26" y="54" class="ui t" style="font-weight:700;">Max</text>
     <text x="124" y="54" class="ui t">Product experiences, application systems, and modern software execution.</text>
     <text x="26" y="82" class="ui t" style="font-weight:700;">Rootline</text>
     <text x="124" y="82" class="ui t">Developer workflows, cloud workspaces, structured operations, and tooling.</text>
  
    </g><g>
      <rect x="22" y="154" width="806" height="84" fill="#FFFFFF" stroke="#9DB7D5"/>
      <rect x="22" y="154" width="806" height="28" fill="#DDEAF7"/>
      <text x="38" y="172" class="ui h">Working modes</text>
      
     <text x="26" y="53" class="ui t">Product architecture · full-stack systems · AI workflows · developer tools · automation · team operations</text>
     <text x="26" y="76" class="ui t">Concept design · community organization · documentation · practical delivery</text>
  
    </g><g>
      <rect x="22" y="254" width="806" height="46" fill="#FFFFFF" stroke="#9DB7D5"/>
      <rect x="22" y="254" width="806" height="28" fill="#DDEAF7"/>
      <text x="38" y="272" class="ui h">Current state</text>
      
    <text x="26" y="53" class="ui t">Building, refining, and organizing software across Flowline Inc.</text>
  
    </g>
</g>
  <rect x="14" y="430" width="1172" height="16" fill="#E3EEF8" stroke="#9DB7D5"/><text x="22" y="442" class="ui mono">Ready</text></rect>
</svg>