<svg xmlns="http://www.w3.org/2000/svg" viewBox="0 0 1200 700" role="img" aria-label="Windows XP style workspace summary" shape-rendering="crispEdges">
  <defs>
    <linearGradient id="title" x1="0" x2="0" y1="0" y2="1">
      <stop offset="0" stop-color="#4e9cf2"/>
      <stop offset="0.36" stop-color="#1d70cf"/>
      <stop offset="1" stop-color="#0754bc"/>
    </linearGradient>
    <linearGradient id="side" x1="0" x2="0" y1="0" y2="1">
      <stop offset="0" stop-color="#d9ebff"/>
      <stop offset="1" stop-color="#bdd9f6"/>
    </linearGradient>
  </defs>

  <rect x="4" y="4" width="1192" height="692" fill="#0a3f91"/>
  <rect x="8" y="8" width="1184" height="684" fill="#f2f5f9" stroke="#ffffff" stroke-width="2"/>
  <rect x="8" y="8" width="1184" height="42" fill="url(#title)"/>
  <rect x="8" y="48" width="1184" height="3" fill="#003c9d"/>
  <text x="25" y="34" font-family="Tahoma,Verdana,Arial,sans-serif" font-size="18" font-weight="700" fill="#ffffff">My Computer — C:\Workspace\justpainful</text>
  <g transform="translate(1082 15)">
    <rect width="26" height="22" fill="#4b9ff1" stroke="#d6ecff"/><rect x="30" width="26" height="22" fill="#4b9ff1" stroke="#d6ecff"/><rect x="60" width="26" height="22" fill="#e76d63" stroke="#ffd9d6"/>
    <path d="M8 13h10" stroke="#fff" stroke-width="2"/><rect x="37" y="7" width="11" height="10" fill="none" stroke="#fff" stroke-width="2"/><path d="M67 7l11 11M78 7L67 18" stroke="#fff" stroke-width="2"/>
  </g>

  <!-- toolbar -->
  <rect x="24" y="67" width="1152" height="38" fill="#f7f7f7" stroke="#b7c5d5"/>
  <g font-family="Tahoma,Verdana,Arial,sans-serif" font-size="13" fill="#23466d">
    <text x="43" y="91">File</text><text x="82" y="91">Edit</text><text x="121" y="91">View</text><text x="166" y="91">Favorites</text><text x="236" y="91">Tools</text><text x="282" y="91">Help</text>
  </g>
  <rect x="24" y="105" width="1152" height="1" fill="#9db9d6"/>

  <!-- left XP sidebar -->
  <rect x="24" y="106" width="268" height="562" fill="url(#side)" stroke="#9db9d6"/>
  <rect x="40" y="125" width="236" height="30" fill="#4d8fd3"/>
  <text x="55" y="146" font-family="Tahoma,Verdana,Arial,sans-serif" font-size="14" font-weight="700" fill="#ffffff">System Tasks</text>

  <!-- small pixel folder icon -->
  <g transform="translate(53 176)">
    <rect x="0" y="8" width="34" height="23" fill="#e4af28"/><rect x="4" y="4" width="15" height="7" fill="#f2c952"/><rect x="4" y="12" width="26" height="3" fill="#fff0a6"/>
  </g>
  <text x="101" y="193" font-family="Tahoma,Verdana,Arial,sans-serif" font-size="14" fill="#1f4f86">Projects</text>
  <text x="101" y="213" font-family="Tahoma,Verdana,Arial,sans-serif" font-size="13" fill="#547391">Max and Rootline</text>

  <!-- terminal -->
  <g transform="translate(53 239)">
    <rect width="34" height="28" fill="#274e7c"/><path d="M7 9l7 5-7 5M18 21h9" stroke="#dff1ff" stroke-width="2"/>
  </g>
  <text x="101" y="256" font-family="Tahoma,Verdana,Arial,sans-serif" font-size="14" fill="#1f4f86">Engineering</text>
  <text x="101" y="276" font-family="Tahoma,Verdana,Arial,sans-serif" font-size="13" fill="#547391">Build, ship, automate</text>

  <!-- code -->
  <g transform="translate(53 302)">
    <rect width="34" height="28" fill="#2e90d4"/><path d="M10 8l-5 6 5 6M24 8l5 6-5 6M20 6l-6 17" stroke="#ffffff" stroke-width="2" fill="none"/>
  </g>
  <text x="101" y="319" font-family="Tahoma,Verdana,Arial,sans-serif" font-size="14" fill="#1f4f86">Languages</text>
  <text x="101" y="339" font-family="Tahoma,Verdana,Arial,sans-serif" font-size="13" fill="#547391">Web, backend, scripting</text>

  <!-- tools -->
  <g transform="translate(53 365)">
    <rect x="0" y="0" width="34" height="28" fill="#f2be3e"/><path d="M8 6l8 8M13 5l5 5M18 15l7 7M20 12l7 7" stroke="#5d4715" stroke-width="3"/>
  </g>
  <text x="101" y="382" font-family="Tahoma,Verdana,Arial,sans-serif" font-size="14" fill="#1f4f86">Toolbox</text>
  <text x="101" y="402" font-family="Tahoma,Verdana,Arial,sans-serif" font-size="13" fill="#547391">AI, design, infra</text>

  <rect x="40" y="441" width="236" height="1" fill="#95b3d1"/>
  <text x="53" y="472" font-family="Tahoma,Verdana,Arial,sans-serif" font-size="13" fill="#405e7e">Pinned repositories are the</text>
  <text x="53" y="492" font-family="Tahoma,Verdana,Arial,sans-serif" font-size="13" fill="#405e7e">active project map.</text>

  <!-- explorer main pane -->
  <rect x="309" y="121" width="851" height="531" fill="#ffffff" stroke="#b5c4d3"/>
  <rect x="309" y="121" width="851" height="34" fill="#e7f0fa"/>
  <text x="327" y="144" font-family="Tahoma,Verdana,Arial,sans-serif" font-size="15" font-weight="700" fill="#1d4f91">Workspace</text>

  <!-- Projects card -->
  <rect x="330" y="177" width="806" height="99" fill="#f7fbff" stroke="#b4c9df"/>
  <rect x="330" y="177" width="806" height="28" fill="#dce9f8"/>
  <text x="347" y="197" font-family="Tahoma,Verdana,Arial,sans-serif" font-size="14" font-weight="700" fill="#1d4f91">Projects</text>
  <g font-family="Tahoma,Verdana,Arial,sans-serif" fill="#324f6d">
    <text x="355" y="230" font-size="15" font-weight="700">Max</text>
    <text x="452" y="230" font-size="14">Product experiences, application systems, and modern software execution.</text>
    <text x="355" y="258" font-size="15" font-weight="700">Rootline</text>
    <text x="452" y="258" font-size="14">Developer workflows, cloud workspaces, structured operations, and technical tooling.</text>
  </g>

  <!-- working modes card -->
  <rect x="330" y="293" width="806" height="84" fill="#f7fbff" stroke="#b4c9df"/>
  <rect x="330" y="293" width="806" height="28" fill="#dce9f8"/>
  <text x="347" y="313" font-family="Tahoma,Verdana,Arial,sans-serif" font-size="14" font-weight="700" fill="#1d4f91">Working modes</text>
  <text x="355" y="348" font-family="Tahoma,Verdana,Arial,sans-serif" font-size="14" fill="#3d5874">Product architecture · full-stack systems · AI workflows · developer tools · automation · team operations</text>
  <text x="355" y="369" font-family="Tahoma,Verdana,Arial,sans-serif" font-size="14" fill="#3d5874">Concept design · community organization · documentation · practical delivery</text>

  <!-- toolbox card -->
  <rect x="330" y="394" width="806" height="137" fill="#f7fbff" stroke="#b4c9df"/>
  <rect x="330" y="394" width="806" height="28" fill="#dce9f8"/>
  <text x="347" y="414" font-family="Tahoma,Verdana,Arial,sans-serif" font-size="14" font-weight="700" fill="#1d4f91">Toolbox</text>
  <g font-family="Tahoma,Verdana,Arial,sans-serif" font-size="14" fill="#3d5874">
    <text x="355" y="451" font-weight="700" fill="#294b70">Build &amp; ship</text>
    <text x="495" y="451">Git · GitHub · Actions · Docker · Linux · Nginx · VS Code · Postman · Vercel</text>
    <text x="355" y="478" font-weight="700" fill="#294b70">Design &amp; teams</text>
    <text x="495" y="478">Figma · Slack · Discord · Notion · Linear · Jira · CI/CD · Documentation</text>
    <text x="355" y="505" font-weight="700" fill="#294b70">AI workflows</text>
    <text x="495" y="505">Claude Code · Codex · Antigravity · LLM orchestration · agent workflows</text>
  </g>

  <!-- languages card -->
  <rect x="330" y="548" width="806" height="84" fill="#f7fbff" stroke="#b4c9df"/>
  <rect x="330" y="548" width="806" height="28" fill="#dce9f8"/>
  <text x="347" y="568" font-family="Tahoma,Verdana,Arial,sans-serif" font-size="14" font-weight="700" fill="#1d4f91">Languages &amp; stack</text>
  <text x="355" y="603" font-family="Tahoma,Verdana,Arial,sans-serif" font-size="14" fill="#3d5874">JavaScript · TypeScript · Python · PHP · HTML · CSS · Lua · SQL · Bash · JSON · YAML</text>
  <text x="355" y="624" font-family="Tahoma,Verdana,Arial,sans-serif" font-size="14" fill="#3d5874">Node.js · React · Next.js · Express · REST APIs · WebSockets · PostgreSQL · MySQL · MongoDB · Redis · Firebase</text>

  <!-- status bar -->
  <rect x="24" y="668" width="1152" height="16" fill="#e1edf8" stroke="#9eb4cb"/>
  <text x="40" y="681" font-family="Tahoma,Verdana,Arial,sans-serif" font-size="11" fill="#466582">Ready</text>
  <text x="1067" y="681" font-family="Tahoma,Verdana,Arial,sans-serif" font-size="11" fill="#466582">Flowline Inc.</text>
</svg>
